PathFileType	4	(X/Y/Z)	s07c0203.trc
DataRate	CameraRate	NumFrames	NumMarkers	Units	OrigDataRate	OrigDataStartFrame	OrigNumFrames
200	200	4	48	mm	200	500	2000
Frame#	Time	racr			lacr			c7			jug			rlel			rdr			llel			ldr			s2			lic			ric			lasi			rasi			rpsi			lpsi			rgt			lgt			rth1			rth2			rth3			rth4			rlfc			rmfc			rsh1			rsh2			rsh3			rsh4			rlmal			rcal			rtoe			rmt5			lth1			lth2			lth4			lth3			llfc			lmfc			lsh1			lsh2			lsh3			lsh4			llmal			lcal			ltoe			lmt5			SBIKE			LBIKE			RBIKE			
		X1	Y1	Z1	X2	Y2	Z2	X3	Y3	Z3	X4	Y4	Z4	X5	Y5	Z5	X6	Y6	Z6	X7	Y7	Z7	X8	Y8	Z8	X9	Y9	Z9	X10	Y10	Z10	X11	Y11	Z11	X12	Y12	Z12	X13	Y13	Z13	X14	Y14	Z14	X15	Y15	Z15	X16	Y16	Z16	X17	Y17	Z17	X18	Y18	Z18	X19	Y19	Z19	X20	Y20	Z20	X21	Y21	Z21	X22	Y22	Z22	X23	Y23	Z23	X24	Y24	Z24	X25	Y25	Z25	X26	Y26	Z26	X27	Y27	Z27	X28	Y28	Z28	X29	Y29	Z29	X30	Y30	Z30	X31	Y31	Z31	X32	Y32	Z32	X33	Y33	Z33	X34	Y34	Z34	X35	Y35	Z35	X36	Y36	Z36	X37	Y37	Z37	X38	Y38	Z38	X39	Y39	Z39	X40	Y40	Z40	X41	Y41	Z41	X42	Y42	Z42	X43	Y43	Z43	X44	Y44	Z44	X45	Y45	Z45	X46	Y46	Z46	X47	Y47	Z47	X48	Y48	Z48	
500	2.5000	439.322534	1457.070257	-78.272521	437.131570	1450.335424	-359.211604	398.189700	1516.910106	-227.594209	377.422258	1368.488752	-224.915853	467.522431	1118.155812	48.636762	689.547449	943.567832	-70.110106	470.402087	1142.802171	-535.893438	681.464548	939.333201	-454.628566	-131.413251	1196.744652	-256.519248	23.603816	1264.056012	-388.624192	22.304317	1249.243272	-98.152433	58.941928	1192.677894	-361.572213	49.756264	1195.476094	-113.126866	-108.757576	1238.402550	-205.230958	-99.922220	1250.322835	-311.210181	-23.740011	1109.573115	-62.340333	-8.225506	1117.242585	-432.085782	80.064128	973.274001	-52.692170	138.721818	907.953592	-61.614673	159.716357	824.740193	-62.029644	168.258731	924.886421	-77.390932	219.591865	703.972631	-90.874226	205.508341	685.040775	-190.933121	193.581977	563.185419	-60.861167	203.019537	476.086928	-80.182367	172.730896	394.913396	-74.675999	217.144902	478.289466	-117.821883	151.962804	255.006918	-76.478830	90.484321	205.072082	-104.177628	379.596101	227.752855	-128.195946	310.766767	181.401255	-55.219747	91.530923	1056.550922	-435.785278	179.582987	1049.047378	-438.916786	192.222196	1081.680205	-429.423252	252.643143	997.818634	-439.038534	403.196132	899.078719	-410.998304	398.363550	882.560944	-308.342953	297.811180	793.446692	-419.807095	251.189131	723.620319	-400.522639	171.339709	682.313456	-402.036734	260.277262	721.755821	-359.348598	69.501990	598.522331	-398.922675	-7.232265	618.157085	-358.668642	179.491085	395.717751	-360.786190	106.574151	438.563666	-421.387999	-260.717156	963.133158	-237.268211	-82.682914	79.386160	-436.650204	-82.714133	79.194417	-39.109874	
501	2.5050	441.592475	1458.289325	-80.631846	433.424649	1454.136461	-362.403316	398.347806	1519.283244	-228.509529	375.750313	1370.681285	-226.552476	469.029708	1119.496074	48.900889	690.176314	943.999795	-70.065183	470.240418	1144.559169	-532.893854	681.281679	939.454522	-452.701075	-129.521204	1196.581842	-253.347896	23.731889	1266.363479	-385.816367	25.539753	1247.444197	-94.996937	60.639874	1195.005027	-359.453431	52.295406	1193.185710	-111.041338	-107.708576	1237.936937	-200.784469	-98.681196	1250.582673	-307.677238	-21.808278	1106.995525	-60.856362	-6.259225	1120.812724	-431.067744	78.685711	968.793224	-50.485844	135.910023	902.188779	-59.289097	154.911644	818.583001	-59.856497	165.917416	918.425546	-74.937608	213.496283	697.645833	-89.168457	199.193626	679.597622	-188.995379	186.826480	556.852952	-59.838762	195.850414	469.976007	-79.204361	165.214197	388.955879	-74.213501	210.394880	472.227052	-116.725240	144.048217	249.248623	-76.522925	82.464355	199.636504	-104.384232	371.763381	220.453399	-127.906393	302.369761	174.469796	-55.036490	94.063066	1062.800079	-435.623796	182.232968	1057.268910	-439.646740	194.293191	1089.985467	-429.747334	256.307698	1007.462181	-440.771268	409.546806	910.860965	-414.355571	406.266501	893.659878	-311.123260	306.337379	803.502403	-422.434235	260.284813	733.350574	-402.948006	180.835577	691.278241	-404.156764	269.403309	731.386632	-361.732675	79.132926	605.499481	-400.472123	2.504063	625.481566	-359.529731	188.054292	401.981830	-361.540236	114.892361	444.737138	-422.234506	-260.531928	963.281244	-237.155791	-82.648019	79.537503	-436.691932	-82.722069	79.180425	-39.100595	
502	2.5100	443.689017	1459.375579	-83.053074	429.610302	1457.823385	-365.740547	398.243145	1521.549770	-229.577275	374.332025	1372.600168	-228.568194	470.567158	1120.708751	49.101289	691.056329	944.506884	-69.916353	470.050595	1146.179809	-529.833144	681.016151	939.461038	-450.563697	-127.745702	1196.275341	-250.313561	23.769878	1268.616499	-383.107537	29.188304	1245.100629	-92.537733	61.755703	1197.065499	-356.638030	54.852650	1191.082226	-108.930163	-105.248244	1236.671271	-196.646557	-97.563001	1250.922878	-303.917878	-19.792034	1104.567787	-59.352751	-4.404490	1124.466425	-429.993769	77.181689	964.681578	-48.705894	133.309846	897.023182	-56.984721	150.480628	813.054147	-57.617587	163.581910	912.756251	-72.599823	207.888323	691.890213	-87.819151	194.216073	674.063159	-187.520007	180.590714	551.161781	-59.081597	190.062891	464.721133	-78.041611	157.802756	383.629548	-73.875129	203.856025	466.747650	-115.782356	135.961140	244.079324	-76.621830	73.760503	195.469051	-104.467719	363.691204	213.282639	-127.878603	293.752478	168.099804	-54.932989	96.296538	1068.878843	-435.546927	184.602036	1065.145685	-440.244045	195.982056	1097.870463	-429.773433	259.665924	1016.815473	-442.205301	415.218519	922.004622	-416.810694	413.394110	905.085619	-313.370867	314.203662	813.175605	-424.802735	268.832620	742.654245	-405.084751	189.776463	699.872849	-406.208899	278.049739	740.715729	-364.069163	89.020407	611.557664	-400.655365	11.506027	631.972006	-360.396572	196.760032	407.879008	-360.980150	123.740483	450.817903	-423.524287	-260.375627	963.432679	-237.068777	-82.624633	79.598600	-436.674185	-82.706887	79.203512	-39.119745	
503	2.5150	445.618195	1460.364377	-85.318500	425.672179	1461.228798	-369.079556	397.800575	1523.664195	-230.916439	374.088871	1374.644630	-232.189535	471.997785	1121.867320	49.212126	692.100723	945.071188	-69.536960	469.827194	1147.681815	-526.745978	680.701385	939.434396	-448.483441	-126.099633	1196.045460	-247.172313	23.709798	1270.661053	-379.976600	32.800409	1242.719286	-90.133377	62.955773	1198.960027	-354.333071	57.264327	1189.004175	-106.987270	-102.464661	1234.862638	-193.408452	-96.509962	1251.326134	-300.189163	-17.853732	1102.312227	-57.941897	-2.810026	1128.033251	-428.804966	75.880815	961.128726	-46.813177	130.820480	892.402814	-54.815765	146.559309	808.188248	-55.447180	161.426028	907.566659	-70.401097	202.916217	686.821338	-86.786390	189.991875	668.865186	-187.603823	174.508185	547.010028	-58.048040	183.424949	459.660032	-77.810966	150.615721	379.143796	-73.709075	197.601184	461.828445	-115.290857	127.909287	239.598596	-76.837520	64.967543	191.577934	-104.629884	355.359527	207.263630	-127.640976	284.984637	162.289796	-54.884665	98.303474	1074.636470	-435.430085	186.623284	1072.692104	-440.536679	197.491073	1105.366348	-429.239699	262.526406	1025.761491	-443.502399	420.275963	932.442258	-418.892682	419.411537	914.095244	-315.258834	321.574792	822.254601	-427.260349	276.556438	751.314726	-407.110622	197.780922	707.694498	-408.225115	285.995337	749.380356	-366.046140	96.507657	617.406469	-403.411656	19.886338	637.493010	-361.548406	206.042597	414.013317	-360.930721	132.872599	456.427757	-423.728564	-260.250949	963.546311	-236.891628	-82.609357	79.669994	-436.681311	-82.664427	79.290764	-39.089518	
